<mxfile host="app.diagrams.net" modified="2023-10-02T09:21:47.875Z" agent="Mozilla/5.0 (Windows NT 10.0; Win64; x64) AppleWebKit/537.36 (KHTML, like Gecko) Chrome/117.0.0.0 Safari/537.36" etag="U6T6hEOHLmnIeArngHTm" version="22.0.0" type="device">
  <diagram name="Page-1" id="IcYI93ME0N--H37FZ3eT">
    <mxGraphModel dx="1882" dy="1626" grid="1" gridSize="10" guides="1" tooltips="1" connect="1" arrows="1" fold="1" page="1" pageScale="1" pageWidth="850" pageHeight="1100" math="0" shadow="0">
      <root>
        <mxCell id="0" />
        <mxCell id="1" parent="0" />
        <mxCell id="uQxzIOvWOeLOxxspnTJq-5" value="" style="edgeStyle=orthogonalEdgeStyle;rounded=0;orthogonalLoop=1;jettySize=auto;html=1;entryX=0.468;entryY=-0.004;entryDx=0;entryDy=0;entryPerimeter=0;" edge="1" parent="1" source="uQxzIOvWOeLOxxspnTJq-1" target="uQxzIOvWOeLOxxspnTJq-51">
          <mxGeometry relative="1" as="geometry">
            <mxPoint x="180" y="70" as="targetPoint" />
          </mxGeometry>
        </mxCell>
        <mxCell id="uQxzIOvWOeLOxxspnTJq-7" value="" style="edgeStyle=orthogonalEdgeStyle;rounded=0;orthogonalLoop=1;jettySize=auto;html=1;" edge="1" parent="1" target="uQxzIOvWOeLOxxspnTJq-6">
          <mxGeometry relative="1" as="geometry">
            <mxPoint x="180" y="191" as="sourcePoint" />
          </mxGeometry>
        </mxCell>
        <mxCell id="uQxzIOvWOeLOxxspnTJq-1" value="TRAIN USER" style="rounded=1;whiteSpace=wrap;html=1;fillColor=#f8cecc;strokeColor=#b85450;" vertex="1" parent="1">
          <mxGeometry x="120" y="-50" width="120" height="60" as="geometry" />
        </mxCell>
        <mxCell id="uQxzIOvWOeLOxxspnTJq-20" value="" style="edgeStyle=orthogonalEdgeStyle;rounded=0;orthogonalLoop=1;jettySize=auto;html=1;" edge="1" parent="1" source="uQxzIOvWOeLOxxspnTJq-4" target="uQxzIOvWOeLOxxspnTJq-19">
          <mxGeometry relative="1" as="geometry" />
        </mxCell>
        <mxCell id="uQxzIOvWOeLOxxspnTJq-4" value="TRAIN TICKET" style="whiteSpace=wrap;html=1;rounded=1;fillColor=#dae8fc;strokeColor=#6c8ebf;" vertex="1" parent="1">
          <mxGeometry x="120" y="240" width="120" height="60" as="geometry" />
        </mxCell>
        <mxCell id="uQxzIOvWOeLOxxspnTJq-32" value="" style="edgeStyle=orthogonalEdgeStyle;rounded=0;orthogonalLoop=1;jettySize=auto;html=1;" edge="1" parent="1">
          <mxGeometry relative="1" as="geometry">
            <mxPoint x="450" y="310" as="sourcePoint" />
            <mxPoint x="450" y="350" as="targetPoint" />
          </mxGeometry>
        </mxCell>
        <mxCell id="uQxzIOvWOeLOxxspnTJq-6" value="ACCOUNT MANAGEMENT" style="whiteSpace=wrap;html=1;rounded=1;fillColor=#d5e8d4;strokeColor=#82b366;" vertex="1" parent="1">
          <mxGeometry x="390" y="240" width="120" height="60" as="geometry" />
        </mxCell>
        <mxCell id="uQxzIOvWOeLOxxspnTJq-22" value="" style="edgeStyle=orthogonalEdgeStyle;rounded=0;orthogonalLoop=1;jettySize=auto;html=1;" edge="1" parent="1" source="uQxzIOvWOeLOxxspnTJq-19" target="uQxzIOvWOeLOxxspnTJq-21">
          <mxGeometry relative="1" as="geometry" />
        </mxCell>
        <mxCell id="uQxzIOvWOeLOxxspnTJq-19" value="RESERVATION" style="whiteSpace=wrap;html=1;rounded=1;fillColor=#1ba1e2;fontColor=#ffffff;strokeColor=#006EAF;" vertex="1" parent="1">
          <mxGeometry x="120" y="350" width="120" height="60" as="geometry" />
        </mxCell>
        <mxCell id="uQxzIOvWOeLOxxspnTJq-24" value="" style="edgeStyle=orthogonalEdgeStyle;rounded=0;orthogonalLoop=1;jettySize=auto;html=1;" edge="1" parent="1" source="uQxzIOvWOeLOxxspnTJq-21">
          <mxGeometry relative="1" as="geometry">
            <mxPoint x="180" y="550" as="targetPoint" />
          </mxGeometry>
        </mxCell>
        <mxCell id="uQxzIOvWOeLOxxspnTJq-21" value="PNR STATUS" style="whiteSpace=wrap;html=1;rounded=1;fillColor=#d0cee2;strokeColor=#56517e;" vertex="1" parent="1">
          <mxGeometry x="120" y="450" width="120" height="60" as="geometry" />
        </mxCell>
        <mxCell id="uQxzIOvWOeLOxxspnTJq-26" value="" style="edgeStyle=orthogonalEdgeStyle;rounded=0;orthogonalLoop=1;jettySize=auto;html=1;" edge="1" parent="1" source="uQxzIOvWOeLOxxspnTJq-23" target="uQxzIOvWOeLOxxspnTJq-25">
          <mxGeometry relative="1" as="geometry" />
        </mxCell>
        <mxCell id="uQxzIOvWOeLOxxspnTJq-23" value="PRINT TICKET" style="whiteSpace=wrap;html=1;rounded=1;fillColor=#fad9d5;strokeColor=#ae4132;" vertex="1" parent="1">
          <mxGeometry x="120" y="540" width="120" height="60" as="geometry" />
        </mxCell>
        <mxCell id="uQxzIOvWOeLOxxspnTJq-25" value="TRAIN SCHEDULE" style="whiteSpace=wrap;html=1;rounded=1;fillColor=#cdeb8b;strokeColor=#36393d;" vertex="1" parent="1">
          <mxGeometry x="120" y="640" width="120" height="60" as="geometry" />
        </mxCell>
        <mxCell id="uQxzIOvWOeLOxxspnTJq-34" value="" style="edgeStyle=orthogonalEdgeStyle;rounded=0;orthogonalLoop=1;jettySize=auto;html=1;" edge="1" parent="1">
          <mxGeometry relative="1" as="geometry">
            <mxPoint x="450" y="410" as="sourcePoint" />
            <mxPoint x="450" y="450" as="targetPoint" />
          </mxGeometry>
        </mxCell>
        <mxCell id="uQxzIOvWOeLOxxspnTJq-31" value="VIEW JOURNEYS" style="whiteSpace=wrap;html=1;rounded=1;fillColor=#60a917;fontColor=#ffffff;strokeColor=#2D7600;" vertex="1" parent="1">
          <mxGeometry x="390" y="340" width="120" height="60" as="geometry" />
        </mxCell>
        <mxCell id="uQxzIOvWOeLOxxspnTJq-63" value="" style="edgeStyle=orthogonalEdgeStyle;rounded=0;orthogonalLoop=1;jettySize=auto;html=1;" edge="1" parent="1" source="uQxzIOvWOeLOxxspnTJq-33" target="uQxzIOvWOeLOxxspnTJq-62">
          <mxGeometry relative="1" as="geometry" />
        </mxCell>
        <mxCell id="uQxzIOvWOeLOxxspnTJq-33" value="UPDATE PASSWORD" style="whiteSpace=wrap;html=1;rounded=1;fillColor=#b0e3e6;strokeColor=#0e8088;" vertex="1" parent="1">
          <mxGeometry x="390" y="440" width="120" height="60" as="geometry" />
        </mxCell>
        <mxCell id="uQxzIOvWOeLOxxspnTJq-48" style="edgeStyle=orthogonalEdgeStyle;rounded=0;orthogonalLoop=1;jettySize=auto;html=1;entryX=0.5;entryY=0;entryDx=0;entryDy=0;" edge="1" parent="1" target="uQxzIOvWOeLOxxspnTJq-4">
          <mxGeometry relative="1" as="geometry">
            <mxPoint x="180" y="190" as="targetPoint" />
            <mxPoint x="180" y="149.3499999999999" as="sourcePoint" />
          </mxGeometry>
        </mxCell>
        <mxCell id="uQxzIOvWOeLOxxspnTJq-51" value="" style="image;points=[];aspect=fixed;html=1;align=center;shadow=0;dashed=0;image=img/lib/allied_telesis/storage/Datacenter_Server_Rack_ToR.svg;" vertex="1" parent="1">
          <mxGeometry x="150" y="40" width="64.13" height="130" as="geometry" />
        </mxCell>
        <mxCell id="uQxzIOvWOeLOxxspnTJq-52" value="TRAIN USERS" style="shape=cylinder3;whiteSpace=wrap;html=1;boundedLbl=1;backgroundOutline=1;size=15;fillColor=#cdeb8b;strokeColor=#36393d;" vertex="1" parent="1">
          <mxGeometry x="370" y="75" width="80" height="60" as="geometry" />
        </mxCell>
        <mxCell id="uQxzIOvWOeLOxxspnTJq-54" value="" style="endArrow=classic;startArrow=classic;html=1;rounded=0;exitX=0;exitY=0.5;exitDx=0;exitDy=0;exitPerimeter=0;" edge="1" parent="1" source="uQxzIOvWOeLOxxspnTJq-52" target="uQxzIOvWOeLOxxspnTJq-51">
          <mxGeometry width="50" height="50" relative="1" as="geometry">
            <mxPoint x="50" y="250" as="sourcePoint" />
            <mxPoint x="100" y="200" as="targetPoint" />
          </mxGeometry>
        </mxCell>
        <mxCell id="uQxzIOvWOeLOxxspnTJq-57" value="TRAIN USER" style="shape=umlActor;verticalLabelPosition=bottom;verticalAlign=top;html=1;fillColor=#cdeb8b;strokeColor=#36393d;" vertex="1" parent="1">
          <mxGeometry x="-60" y="280" width="30" height="60" as="geometry" />
        </mxCell>
        <mxCell id="uQxzIOvWOeLOxxspnTJq-60" value="" style="endArrow=classic;html=1;rounded=0;exitX=0.757;exitY=-0.013;exitDx=0;exitDy=0;exitPerimeter=0;entryX=0;entryY=0.75;entryDx=0;entryDy=0;" edge="1" parent="1" source="uQxzIOvWOeLOxxspnTJq-57" target="uQxzIOvWOeLOxxspnTJq-1">
          <mxGeometry width="50" height="50" relative="1" as="geometry">
            <mxPoint x="-210" y="40" as="sourcePoint" />
            <mxPoint x="-160" y="-10" as="targetPoint" />
          </mxGeometry>
        </mxCell>
        <mxCell id="uQxzIOvWOeLOxxspnTJq-62" value="UPDATE MOBILE NUMBER" style="whiteSpace=wrap;html=1;fillColor=#ffcccc;strokeColor=#36393d;rounded=1;" vertex="1" parent="1">
          <mxGeometry x="390" y="540" width="120" height="60" as="geometry" />
        </mxCell>
      </root>
    </mxGraphModel>
  </diagram>
</mxfile>
